<?xml version="1.0" standalone="no"?>
<!DOCTYPE svg PUBLIC "-//W3C//DTD SVG 20010904//EN"
 "http://www.w3.org/TR/2001/REC-SVG-20010904/DTD/svg10.dtd">
<svg version="1.0" xmlns="http://www.w3.org/2000/svg"
 width="1500.000000pt" height="1500.000000pt" viewBox="0 0 1500.000000 1500.000000"
 preserveAspectRatio="xMidYMid meet">
<metadata>
Created by potrace 1.14, written by Peter Selinger 2001-2017
</metadata>
<g transform="translate(0.000000,1500.000000) scale(0.100000,-0.100000)"
fill="#000000" stroke="none">
<path d="M0 7500 l0 -7500 7500 0 7500 0 0 7500 0 7500 -7500 0 -7500 0 0
-7500z m3840 2035 c636 -104 1060 -450 1251 -1020 20 -60 34 -113 30 -116 -3
-3 -175 -34 -381 -68 -206 -35 -385 -65 -397 -68 -18 -4 -23 3 -38 54 -74 256
-284 442 -581 514 -124 31 -325 30 -439 0 -179 -47 -336 -154 -391 -267 -35
-72 -43 -168 -19 -250 14 -48 27 -69 74 -115 114 -112 184 -139 774 -300 243
-66 503 -141 577 -166 398 -134 637 -312 765 -571 87 -176 116 -415 79 -659
-82 -556 -563 -942 -1299 -1045 -133 -18 -437 -16 -570 5 -641 99 -1116 470
-1289 1007 -44 134 -68 260 -52 266 17 6 759 115 762 111 2 -1 17 -43 33 -91
95 -279 315 -486 606 -571 398 -115 887 30 1005 299 65 146 39 305 -67 410
-94 92 -127 105 -880 325 -658 193 -766 234 -928 349 -235 166 -362 398 -383
694 -35 513 167 886 602 1108 308 156 788 225 1156 165z m6295 -903 c0 -507 2
-922 5 -922 3 0 421 416 930 925 l925 925 537 0 c296 0 538 -3 538 -7 0 -5
-460 -468 -1022 -1030 l-1023 -1023 1023 -1023 c562 -562 1022 -1025 1022
-1030 0 -4 -242 -7 -537 -7 l-538 0 -757 757 -758 758 -170 -170 -170 -170 -2
-585 -3 -585 -392 -3 -393 -2 0 2060 0 2060 393 -2 392 -3 0 -923z m-2830 665
c66 -138 157 -330 202 -425 46 -95 83 -178 83 -185 0 -7 -353 -365 -785 -797
-432 -432 -782 -774 -776 -760 5 14 44 97 86 185 42 88 153 320 245 515 92
195 262 553 377 795 115 242 261 549 324 682 63 133 116 243 119 243 3 0 59
-114 125 -253z m490 -1399 c136 -288 293 -619 348 -736 l101 -213 -480 -480
-479 -479 -455 0 -456 0 -129 -275 -130 -275 -442 0 c-244 0 -443 2 -443 4 0
4 26 59 130 281 21 44 133 280 249 525 l212 445 857 861 c471 473 860 861 863
862 3 1 118 -233 254 -520z m613 -1290 c50 -106 130 -274 177 -373 170 -353
375 -785 375 -790 0 -3 -199 -4 -442 -3 l-442 3 -130 272 -129 273 -160 2
-160 3 403 403 c221 221 406 402 410 402 3 0 47 -87 98 -192z"/>
<path d="M7081 7479 c-5 -13 -97 -208 -204 -434 l-195 -410 410 -3 c226 -1
413 -1 414 1 4 4 -395 848 -407 861 -5 5 -12 -1 -18 -15z"/>
</g>
</svg>
