<svg width="6180" height="1333" viewBox="0 0 6180 1333" fill="none" xmlns="http://www.w3.org/2000/svg">
    <path d="M1803.33 1154.36L2067.7 889.989L2279.28 1332.83H1992.02L1907.28 1154.36H1803.33ZM4049.02 1332.83H4103.71L3957.33 1188.06L4100.47 1050.58H4045.35L3931.31 1159.6V1050.58H3891.69V1332.83H3931.31V1217.13L4049.02 1332.83ZM5893.68 1050.58H5854.06V1254.42L5713.87 1050.58H5681.56V1332.83H5721.18V1129.06L5860.98 1332.83H5893.68V1050.58ZM2657.95 601.966L3258.82 1.01109H3610.27L2944.45 666.834L3610.27 1332.66H3258.82L2768.72 842.562L2657.95 953.335V1332.83H2404.23V0.841095H2657.95V601.966ZM536.14 1332.83C441.544 1332.83 356.235 1314.17 280.303 1280.81C204.286 1247.45 141.953 1199.56 93.133 1137.14C44.398 1074.8 13.4841 1000.39 0.477051 914.071L252.345 876.821C270.083 950.133 306.74 1006.64 362.316 1046.25C417.894 1085.87 481.156 1105.72 552.106 1105.72C591.719 1105.72 630.148 1099.47 667.398 1087.05C704.644 1074.63 735.219 1056.31 759.206 1032.07C783.11 1007.83 795.102 978.008 795.102 942.533C795.102 929.529 793.16 916.941 789.36 904.862C785.477 892.787 779.14 881.383 770.273 870.741C761.402 860.1 748.819 850.05 732.602 840.587C716.302 831.129 695.777 822.596 670.944 814.912L339.258 717.354C314.426 710.258 285.624 700.208 252.768 687.2C219.996 674.196 188.154 655.612 157.409 631.287C126.665 607.046 101.073 574.946 80.717 535.079C60.277 495.212 50.1411 444.791 50.1411 383.891C50.1411 298.162 71.679 226.96 114.924 170.201C158.085 113.441 215.689 71.2081 287.82 43.4191C359.951 15.6311 441.066 0.840088 527.273 0.840088C615.855 0.840088 694.002 18.9251 763.177 47.8111C832.352 76.7821 890.294 118.929 937.002 174.169C983.71 229.492 1017.41 296.979 1038.1 376.8L777.369 421.141C767.906 379.754 750.423 344.871 724.998 316.491C699.577 288.112 669.256 266.487 634.119 251.707C598.898 236.926 562.156 228.986 523.723 227.804C485.885 226.621 450.244 231.772 416.879 243.344C383.432 254.915 356.235 271.554 335.288 293.433C314.257 315.308 303.783 341.325 303.783 371.479C303.783 399.266 312.314 421.9 329.545 439.3C346.69 456.783 368.229 470.808 394.243 481.45C420.256 492.091 446.865 500.958 474.06 508.054L695.777 568.358C728.885 577.229 765.544 588.887 805.748 603.412C845.952 617.941 884.552 638.041 921.46 663.716C958.369 689.396 988.86 723.266 1012.85 765.241C1036.75 807.221 1048.75 860.437 1048.75 924.883C1048.75 993.466 1034.39 1053.35 1005.76 1104.45C977.035 1155.63 938.523 1197.87 890.04 1231.31C841.56 1264.76 786.744 1289.68 725.506 1306.23C664.273 1322.79 611.005 1332.83 536.14 1332.83ZM5266.91 1050.58L5348.76 1332.83H5387.44L5454.03 1119.54L5520.28 1332.83H5558.97L5640.83 1050.58H5599.23L5538.78 1261.85L5472.95 1050.58H5434.78L5369.28 1261.85L5308.49 1050.58H5266.91ZM5012.81 1089.08V1050.58H4807.81V1089.08H4890.31C4890.31 1089.08 4890.31 1332.83 4890.31 1332.83H4930.31V1089.08C4930.31 1089.08 5012.81 1089.08 5012.81 1089.08ZM6135.21 1326.48L6137.63 1332.83H6179.84L6070.57 1050.58H6036.05L5926.37 1332.83H5968.6L5994.1 1266.08H6112.13L6135.21 1326.48ZM4773.21 1326.48L4775.63 1332.83H4817.84L4708.57 1050.58H4674.05L4564.37 1332.83H4606.6L4632.1 1266.08H4750.13L4773.21 1326.48ZM4413.18 1294.33V1209.83H4533.18V1171.33H4413.18V1089.08H4542.56V1050.58H4373.56V1332.83H4544.43V1294.33H4413.18ZM4292.03 1327.94L4294.89 1332.83H4340.75L4272.81 1218.04C4304.09 1204.55 4325.81 1173.81 4325.81 1138.08C4325.81 1089.89 4286.49 1050.58 4238.31 1050.58H4124.93V1332.83H4164.56V1225.21H4231.89L4292.03 1327.94ZM5253.58 1065.65L5262.9 1050.58H5217.15L5139.79 1176.95L5062.08 1050.58H5016.33L5119.81 1217.76V1332.83H5159.43V1217.76L5253.58 1065.65ZM1819.96 367.68L1263.8 923.84L1069.6 1332.83H1357.11L1441.85 1154.36H1737.19L2046.31 845.234L1819.96 367.68ZM6009.17 1227.58L6053.31 1112.42L6097.45 1227.58H6009.17ZM4647.17 1227.58L4691.31 1112.42L4735.45 1227.58H4647.17ZM4164.56 1089.08H4238.31C4264.78 1089.08 4286.18 1110.98 4286.18 1138.08C4286.18 1164.85 4264.77 1186.71 4238.31 1186.71H4164.56V1089.08ZM1539.16 949.451L1674.57 664.271L1809.98 949.451H1539.16ZM5081.69 816.21C5134.6 816.21 5180.55 788.593 5203.58 746.992L5208.28 738.489L5173.32 718.404L5168.56 727.511C5152.91 757.453 5119.45 777.335 5081.69 777.335C5018.54 777.335 4974.94 729.99 4974.94 670.96C4974.94 611.93 5018.54 564.585 5081.69 564.585C5119.1 564.585 5152.21 584.116 5167.85 613.368L5172.65 622.343L5207.63 602.251L5202.77 593.704C5179.35 552.508 5133.79 525.71 5081.69 525.71C4996.01 525.71 4935.31 590.512 4935.31 670.96C4935.31 751.408 4996.01 816.21 5081.69 816.21ZM5314.94 816.21C5367.14 816.21 5409.19 786.628 5409.19 730.21V529.835H5369.19V730.21C5369.19 745.592 5364.18 757.404 5354.95 765.249C5345.27 773.473 5331.38 777.335 5314.94 777.335C5289.94 777.335 5270.52 768.625 5262.62 748.693L5258.33 737.885L5224.01 758.477L5227.53 766.449C5241.8 798.783 5274.62 816.21 5314.94 816.21ZM4406.44 690.085V670.085H4255.06V708.585H4364.92C4356.81 747.779 4322.7 777.335 4269.81 777.335C4205.25 777.335 4161.56 730.026 4161.56 670.96C4161.56 611.93 4205.16 564.585 4268.31 564.585C4305.72 564.585 4339.17 584.107 4354.81 614.035L4359.65 623.287L4394.59 602.47L4389.75 594.043C4366.34 553.273 4320.79 525.71 4268.31 525.71C4182.63 525.71 4121.94 590.512 4121.94 670.96C4121.94 751.378 4182.56 816.21 4269.81 816.21C4354.55 816.21 4406.44 758.602 4406.44 690.085ZM4886.06 529.835H4846.44V733.674L4706.25 529.835H4673.94V812.085H4713.56V608.31L4853.36 812.085H4886.06V529.835ZM4068.96 805.734L4071.39 812.085H4113.6L4004.33 529.835H3969.8L3860.13 812.085H3902.36L3927.86 745.335H4045.89L4068.96 805.734ZM5639.08 805.734L5641.51 812.085H5683.72L5574.45 529.835H5539.92L5430.25 812.085H5472.48L5497.98 745.335H5616.01L5639.08 805.734ZM4494.93 773.585V689.085H4614.93V650.585H4494.93V568.335H4624.31V529.835H4455.31V812.085H4626.18V773.585H4494.93ZM1323.52 798.062L1836.86 284.718L1702.07 0.840088L1323.52 798.062ZM3942.91 706.835L3987.05 591.676L4031.19 706.835H3942.91ZM5513.03 706.835L5557.17 591.676L5601.31 706.835H5513.03ZM5524.17 291.34C5577.08 291.34 5623.04 263.723 5646.06 222.121L5650.77 213.618L5615.8 193.534L5611.04 202.64C5595.39 232.582 5561.94 252.465 5524.17 252.465C5461.02 252.465 5417.42 205.12 5417.42 146.09C5417.42 87.0601 5461.02 39.7151 5524.17 39.7151C5561.58 39.7151 5594.69 59.2461 5610.34 88.4981L5615.14 97.4731L5650.11 77.3801L5645.25 68.8341C5621.83 27.6381 5576.27 0.840088 5524.17 0.840088C5438.49 0.840088 5377.79 65.6421 5377.79 146.09C5377.79 226.538 5438.49 291.34 5524.17 291.34ZM4439.67 291.34C4471.39 291.34 4497.78 281.111 4516.31 263.499C4535.02 245.73 4545.92 220.349 4545.92 189.59V4.96509H4506.29V189.59C4506.29 208.073 4500.8 223.895 4489.65 235.001C4478.37 246.245 4461.5 252.465 4439.67 252.465C4418.02 252.465 4401.26 246.246 4390.03 235.014C4378.92 223.905 4373.42 208.078 4373.42 189.59V4.96509H4333.79V189.59C4333.79 220.342 4344.6 245.715 4363.19 263.48C4381.64 281.102 4407.93 291.34 4439.67 291.34ZM3981.79 291.34C4040.38 291.34 4077.92 258.353 4077.92 209.465C4077.92 183.06 4066.23 165.554 4047.68 152.46C4031.04 140.719 4008.41 132.738 3984.15 124.714L3984.14 124.713C3969.76 119.969 3957.03 115.683 3946.96 110.249C3934.65 103.61 3926.79 95.2191 3926.79 80.4651C3926.79 56.4371 3946.29 39.7151 3976.17 39.7151C4008.61 39.7151 4026.11 58.5471 4034.54 78.9821L4038.77 89.2321L4073.08 70.1761L4069.65 62.0181C4055.52 28.3481 4023.97 0.840088 3976.17 0.840088C3925.69 0.840088 3886.79 32.4311 3886.79 81.2151C3886.79 113.011 3902.92 131.078 3927.04 143.859C3941.37 151.458 3958.74 157.093 3976.87 162.982L3976.9 162.992C3995.84 169.01 4011.9 174.68 4023.17 182.721C4032.41 189.321 4037.92 197.657 4037.92 209.84C4037.92 234.91 4018.46 252.465 3981.79 252.465C3944.07 252.465 3920.41 234.309 3912.54 206.752L3909.04 194.497L3873.96 215.086L3876.4 222.627C3889.62 263.524 3927.68 291.34 3981.79 291.34ZM5850.5 287.215H5940.84L5966.34 220.465H6084.37L6109.87 287.215H6152.08L6042.81 4.96509H6008.29L5900.44 282.511L5758.82 142.444L5901.96 4.96509H5846.83L5732.79 113.988V4.96509H5693.17V287.215H5732.79V171.517L5850.5 287.215ZM5328.54 4.96509H5288.92V208.804L5148.74 4.96509H5116.42V287.215H5156.04V83.4401L5295.84 287.215H5328.54V4.96509ZM4714.92 4.96509H4606.42V287.215H4714.92C4792.9 287.215 4848.54 224.066 4848.54 146.09C4848.54 68.1141 4792.9 4.96509 4714.92 4.96509ZM4297.29 43.4651V4.96509H4092.29V43.4651H4174.79V287.215H4214.79V43.4651H4297.29ZM4937.42 248.715V164.215H5057.42V125.715H4937.42V43.4651H5066.79V4.96509H4897.79V287.215H5068.67V248.715H4937.42ZM4714.92 248.715H4646.04V43.4651H4714.92C4771.17 43.4651 4809.29 89.5031 4809.29 146.09C4809.29 202.677 4771.17 248.715 4714.92 248.715ZM5981.41 181.965L6025.55 66.8061L6069.69 181.965H5981.41Z"
          fill="#181818"/>
</svg>
